<svg version="1.1" xmlns="http://www.w3.org/2000/svg" xmlns:xlink="http://www.w3.org/1999/xlink" width="1324" height="936"><defs><clipPath id="bBJQQAXzxdpZ"><path fill="none" stroke="none" d=" M 0 0 L 1324 0 L 1324 936 L 0 936 L 0 0 Z"/></clipPath></defs><g transform="scale(1,1)" clip-path="url(#bBJQQAXzxdpZ)"><g><rect fill="rgb(255,255,255)" stroke="none" x="0" y="0" width="1324" height="936" fill-opacity="1"/><path fill="none" stroke="rgb(192,192,192)" paint-order="fill stroke markers" d=" M 27.5 0.5 L 27.5 936.5 M 27.5 0.5 L 27.5 936.5 M 70.5 0.5 L 70.5 936.5 M 113.5 0.5 L 113.5 936.5 M 155.5 0.5 L 155.5 936.5 M 198.5 0.5 L 198.5 936.5 M 241.5 0.5 L 241.5 936.5 M 284.5 0.5 L 284.5 936.5 M 326.5 0.5 L 326.5 936.5 M 369.5 0.5 L 369.5 936.5 M 412.5 0.5 L 412.5 936.5 M 455.5 0.5 L 455.5 936.5 M 498.5 0.5 L 498.5 936.5 M 540.5 0.5 L 540.5 936.5 M 583.5 0.5 L 583.5 936.5 M 626.5 0.5 L 626.5 936.5 M 711.5 0.5 L 711.5 936.5 M 754.5 0.5 L 754.5 936.5 M 797.5 0.5 L 797.5 936.5 M 840.5 0.5 L 840.5 936.5 M 883.5 0.5 L 883.5 936.5 M 925.5 0.5 L 925.5 936.5 M 968.5 0.5 L 968.5 936.5 M 1011.5 0.5 L 1011.5 936.5 M 1054.5 0.5 L 1054.5 936.5 M 1096.5 0.5 L 1096.5 936.5 M 1139.5 0.5 L 1139.5 936.5 M 1182.5 0.5 L 1182.5 936.5 M 1225.5 0.5 L 1225.5 936.5 M 1268.5 0.5 L 1268.5 936.5 M 1310.5 0.5 L 1310.5 936.5" stroke-opacity="1" stroke-linecap="round" stroke-linejoin="round" stroke-miterlimit="10"/><path fill="none" stroke="rgb(192,192,192)" paint-order="fill stroke markers" d=" M 1.5 0.5 L 1.5 936.5 M 10.5 0.5 L 10.5 936.5 M 18.5 0.5 L 18.5 936.5 M 36.5 0.5 L 36.5 936.5 M 44.5 0.5 L 44.5 936.5 M 53.5 0.5 L 53.5 936.5 M 61.5 0.5 L 61.5 936.5 M 78.5 0.5 L 78.5 936.5 M 87.5 0.5 L 87.5 936.5 M 95.5 0.5 L 95.5 936.5 M 104.5 0.5 L 104.5 936.5 M 121.5 0.5 L 121.5 936.5 M 130.5 0.5 L 130.5 936.5 M 138.5 0.5 L 138.5 936.5 M 147.5 0.5 L 147.5 936.5 M 164.5 0.5 L 164.5 936.5 M 172.5 0.5 L 172.5 936.5 M 181.5 0.5 L 181.5 936.5 M 190.5 0.5 L 190.5 936.5 M 207.5 0.5 L 207.5 936.5 M 215.5 0.5 L 215.5 936.5 M 224.5 0.5 L 224.5 936.5 M 232.5 0.5 L 232.5 936.5 M 249.5 0.5 L 249.5 936.5 M 258.5 0.5 L 258.5 936.5 M 267.5 0.5 L 267.5 936.5 M 275.5 0.5 L 275.5 936.5 M 292.5 0.5 L 292.5 936.5 M 301.5 0.5 L 301.5 936.5 M 309.5 0.5 L 309.5 936.5 M 318.5 0.5 L 318.5 936.5 M 335.5 0.5 L 335.5 936.5 M 344.5 0.5 L 344.5 936.5 M 352.5 0.5 L 352.5 936.5 M 361.5 0.5 L 361.5 936.5 M 378.5 0.5 L 378.5 936.5 M 386.5 0.5 L 386.5 936.5 M 395.5 0.5 L 395.5 936.5 M 403.5 0.5 L 403.5 936.5 M 421.5 0.5 L 421.5 936.5 M 429.5 0.5 L 429.5 936.5 M 438.5 0.5 L 438.5 936.5 M 446.5 0.5 L 446.5 936.5 M 463.5 0.5 L 463.5 936.5 M 472.5 0.5 L 472.5 936.5 M 480.5 0.5 L 480.5 936.5 M 489.5 0.5 L 489.5 936.5 M 506.5 0.5 L 506.5 936.5 M 515.5 0.5 L 515.5 936.5 M 523.5 0.5 L 523.5 936.5 M 532.5 0.5 L 532.5 936.5 M 549.5 0.5 L 549.5 936.5 M 557.5 0.5 L 557.5 936.5 M 566.5 0.5 L 566.5 936.5 M 575.5 0.5 L 575.5 936.5 M 592.5 0.5 L 592.5 936.5 M 600.5 0.5 L 600.5 936.5 M 609.5 0.5 L 609.5 936.5 M 617.5 0.5 L 617.5 936.5 M 634.5 0.5 L 634.5 936.5 M 643.5 0.5 L 643.5 936.5 M 652.5 0.5 L 652.5 936.5 M 660.5 0.5 L 660.5 936.5 M 677.5 0.5 L 677.5 936.5 M 686.5 0.5 L 686.5 936.5 M 694.5 0.5 L 694.5 936.5 M 703.5 0.5 L 703.5 936.5 M 720.5 0.5 L 720.5 936.5 M 729.5 0.5 L 729.5 936.5 M 737.5 0.5 L 737.5 936.5 M 746.5 0.5 L 746.5 936.5 M 763.5 0.5 L 763.5 936.5 M 771.5 0.5 L 771.5 936.5 M 780.5 0.5 L 780.5 936.5 M 788.5 0.5 L 788.5 936.5 M 806.5 0.5 L 806.5 936.5 M 814.5 0.5 L 814.5 936.5 M 823.5 0.5 L 823.5 936.5 M 831.5 0.5 L 831.5 936.5 M 848.5 0.5 L 848.5 936.5 M 857.5 0.5 L 857.5 936.5 M 865.5 0.5 L 865.5 936.5 M 874.5 0.5 L 874.5 936.5 M 891.5 0.5 L 891.5 936.5 M 900.5 0.5 L 900.5 936.5 M 908.5 0.5 L 908.5 936.5 M 917.5 0.5 L 917.5 936.5 M 934.5 0.5 L 934.5 936.5 M 942.5 0.5 L 942.5 936.5 M 951.5 0.5 L 951.5 936.5 M 960.5 0.5 L 960.5 936.5 M 977.5 0.5 L 977.5 936.5 M 985.5 0.5 L 985.5 936.5 M 994.5 0.5 L 994.5 936.5 M 1002.5 0.5 L 1002.5 936.5 M 1019.5 0.5 L 1019.5 936.5 M 1028.5 0.5 L 1028.5 936.5 M 1037.5 0.5 L 1037.5 936.5 M 1045.5 0.5 L 1045.5 936.5 M 1062.5 0.5 L 1062.5 936.5 M 1071.5 0.5 L 1071.5 936.5 M 1079.5 0.5 L 1079.5 936.5 M 1088.5 0.5 L 1088.5 936.5 M 1105.5 0.5 L 1105.5 936.5 M 1114.5 0.5 L 1114.5 936.5 M 1122.5 0.5 L 1122.5 936.5 M 1131.5 0.5 L 1131.5 936.5 M 1148.5 0.5 L 1148.5 936.5 M 1156.5 0.5 L 1156.5 936.5 M 1165.5 0.5 L 1165.5 936.5 M 1173.5 0.5 L 1173.5 936.5 M 1191.5 0.5 L 1191.5 936.5 M 1199.5 0.5 L 1199.5 936.5 M 1208.5 0.5 L 1208.5 936.5 M 1216.5 0.5 L 1216.5 936.5 M 1233.5 0.5 L 1233.5 936.5 M 1242.5 0.5 L 1242.5 936.5 M 1250.5 0.5 L 1250.5 936.5 M 1259.5 0.5 L 1259.5 936.5 M 1276.5 0.5 L 1276.5 936.5 M 1285.5 0.5 L 1285.5 936.5 M 1293.5 0.5 L 1293.5 936.5 M 1302.5 0.5 L 1302.5 936.5 M 1319.5 0.5 L 1319.5 936.5" stroke-opacity="0.23529411764705882" stroke-linecap="round" stroke-linejoin="round" stroke-miterlimit="10"/><path fill="none" stroke="rgb(192,192,192)" paint-order="fill stroke markers" d=" M 0.5 19.5 L 1324.5 19.5 M 0.5 19.5 L 1324.5 19.5 M 0.5 61.5 L 1324.5 61.5 M 0.5 104.5 L 1324.5 104.5 M 0.5 147.5 L 1324.5 147.5 M 0.5 190.5 L 1324.5 190.5 M 0.5 232.5 L 1324.5 232.5 M 0.5 275.5 L 1324.5 275.5 M 0.5 318.5 L 1324.5 318.5 M 0.5 361.5 L 1324.5 361.5 M 0.5 404.5 L 1324.5 404.5 M 0.5 446.5 L 1324.5 446.5 M 0.5 532.5 L 1324.5 532.5 M 0.5 575.5 L 1324.5 575.5 M 0.5 617.5 L 1324.5 617.5 M 0.5 660.5 L 1324.5 660.5 M 0.5 703.5 L 1324.5 703.5 M 0.5 746.5 L 1324.5 746.5 M 0.5 789.5 L 1324.5 789.5 M 0.5 831.5 L 1324.5 831.5 M 0.5 874.5 L 1324.5 874.5 M 0.5 917.5 L 1324.5 917.5" stroke-opacity="1" stroke-linecap="round" stroke-linejoin="round" stroke-miterlimit="10"/><path fill="none" stroke="rgb(192,192,192)" paint-order="fill stroke markers" d=" M 0.5 1.5 L 1324.5 1.5 M 0.5 1.5 L 1324.5 1.5 M 0.5 10.5 L 1324.5 10.5 M 0.5 27.5 L 1324.5 27.5 M 0.5 36.5 L 1324.5 36.5 M 0.5 44.5 L 1324.5 44.5 M 0.5 53.5 L 1324.5 53.5 M 0.5 70.5 L 1324.5 70.5 M 0.5 78.5 L 1324.5 78.5 M 0.5 87.5 L 1324.5 87.5 M 0.5 96.5 L 1324.5 96.5 M 0.5 113.5 L 1324.5 113.5 M 0.5 121.5 L 1324.5 121.5 M 0.5 130.5 L 1324.5 130.5 M 0.5 138.5 L 1324.5 138.5 M 0.5 155.5 L 1324.5 155.5 M 0.5 164.5 L 1324.5 164.5 M 0.5 173.5 L 1324.5 173.5 M 0.5 181.5 L 1324.5 181.5 M 0.5 198.5 L 1324.5 198.5 M 0.5 207.5 L 1324.5 207.5 M 0.5 215.5 L 1324.5 215.5 M 0.5 224.5 L 1324.5 224.5 M 0.5 241.5 L 1324.5 241.5 M 0.5 250.5 L 1324.5 250.5 M 0.5 258.5 L 1324.5 258.5 M 0.5 267.5 L 1324.5 267.5 M 0.5 284.5 L 1324.5 284.5 M 0.5 292.5 L 1324.5 292.5 M 0.5 301.5 L 1324.5 301.5 M 0.5 309.5 L 1324.5 309.5 M 0.5 327.5 L 1324.5 327.5 M 0.5 335.5 L 1324.5 335.5 M 0.5 344.5 L 1324.5 344.5 M 0.5 352.5 L 1324.5 352.5 M 0.5 369.5 L 1324.5 369.5 M 0.5 378.5 L 1324.5 378.5 M 0.5 386.5 L 1324.5 386.5 M 0.5 395.5 L 1324.5 395.5 M 0.5 412.5 L 1324.5 412.5 M 0.5 421.5 L 1324.5 421.5 M 0.5 429.5 L 1324.5 429.5 M 0.5 438.5 L 1324.5 438.5 M 0.5 455.5 L 1324.5 455.5 M 0.5 463.5 L 1324.5 463.5 M 0.5 472.5 L 1324.5 472.5 M 0.5 481.5 L 1324.5 481.5 M 0.5 498.5 L 1324.5 498.5 M 0.5 506.5 L 1324.5 506.5 M 0.5 515.5 L 1324.5 515.5 M 0.5 523.5 L 1324.5 523.5 M 0.5 540.5 L 1324.5 540.5 M 0.5 549.5 L 1324.5 549.5 M 0.5 558.5 L 1324.5 558.5 M 0.5 566.5 L 1324.5 566.5 M 0.5 583.5 L 1324.5 583.5 M 0.5 592.5 L 1324.5 592.5 M 0.5 600.5 L 1324.5 600.5 M 0.5 609.5 L 1324.5 609.5 M 0.5 626.5 L 1324.5 626.5 M 0.5 635.5 L 1324.5 635.5 M 0.5 643.5 L 1324.5 643.5 M 0.5 652.5 L 1324.5 652.5 M 0.5 669.5 L 1324.5 669.5 M 0.5 677.5 L 1324.5 677.5 M 0.5 686.5 L 1324.5 686.5 M 0.5 694.5 L 1324.5 694.5 M 0.5 712.5 L 1324.5 712.5 M 0.5 720.5 L 1324.5 720.5 M 0.5 729.5 L 1324.5 729.5 M 0.5 737.5 L 1324.5 737.5 M 0.5 754.5 L 1324.5 754.5 M 0.5 763.5 L 1324.5 763.5 M 0.5 771.5 L 1324.5 771.5 M 0.5 780.5 L 1324.5 780.5 M 0.5 797.5 L 1324.5 797.5 M 0.5 806.5 L 1324.5 806.5 M 0.5 814.5 L 1324.5 814.5 M 0.5 823.5 L 1324.5 823.5 M 0.5 840.5 L 1324.5 840.5 M 0.5 848.5 L 1324.5 848.5 M 0.5 857.5 L 1324.5 857.5 M 0.5 866.5 L 1324.5 866.5 M 0.5 883.5 L 1324.5 883.5 M 0.5 891.5 L 1324.5 891.5 M 0.5 900.5 L 1324.5 900.5 M 0.5 908.5 L 1324.5 908.5 M 0.5 925.5 L 1324.5 925.5 M 0.5 934.5 L 1324.5 934.5" stroke-opacity="0.23529411764705882" stroke-linecap="round" stroke-linejoin="round" stroke-miterlimit="10"/><path fill="none" stroke="rgb(0,0,0)" paint-order="fill stroke markers" d=" M 669.5 2.5 L 669.5 936.5" stroke-opacity="1" stroke-miterlimit="10"/><path fill="none" stroke="rgb(0,0,0)" paint-order="fill stroke markers" d=" M 669.5 1.5 L 665.5 5.5" stroke-opacity="1" stroke-miterlimit="10"/><path fill="none" stroke="rgb(0,0,0)" paint-order="fill stroke markers" d=" M 669.5 1.5 L 673.5 5.5" stroke-opacity="1" stroke-miterlimit="10"/><path fill="none" stroke="rgb(0,0,0)" paint-order="fill stroke markers" d=" M 0.5 489.5 L 1322.5 489.5" stroke-opacity="1" stroke-miterlimit="10"/><path fill="none" stroke="rgb(0,0,0)" paint-order="fill stroke markers" d=" M 1323.5 489.5 L 1319.5 485.5" stroke-opacity="1" stroke-miterlimit="10"/><path fill="none" stroke="rgb(0,0,0)" paint-order="fill stroke markers" d=" M 1323.5 489.5 L 1319.5 493.5" stroke-opacity="1" stroke-miterlimit="10"/><text fill="none" stroke="rgb(255,255,255)" font-family="geogebra-sans-serif, sans-serif" font-size="12px" font-style="normal" font-weight="normal" text-decoration="normal" x="19" y="505" text-anchor="start" dominant-baseline="alphabetic" stroke-opacity="1" stroke-linejoin="bevel" stroke-miterlimit="10" stroke-width="3">–30</text><text fill="rgb(0,0,0)" stroke="none" font-family="geogebra-sans-serif, sans-serif" font-size="12px" font-style="normal" font-weight="normal" text-decoration="normal" x="19" y="505" text-anchor="start" dominant-baseline="alphabetic" fill-opacity="1">–30</text><text fill="none" stroke="rgb(255,255,255)" font-family="geogebra-sans-serif, sans-serif" font-size="12px" font-style="normal" font-weight="normal" text-decoration="normal" x="62" y="505" text-anchor="start" dominant-baseline="alphabetic" stroke-opacity="1" stroke-linejoin="bevel" stroke-miterlimit="10" stroke-width="3">–28</text><text fill="rgb(0,0,0)" stroke="none" font-family="geogebra-sans-serif, sans-serif" font-size="12px" font-style="normal" font-weight="normal" text-decoration="normal" x="62" y="505" text-anchor="start" dominant-baseline="alphabetic" fill-opacity="1">–28</text><text fill="none" stroke="rgb(255,255,255)" font-family="geogebra-sans-serif, sans-serif" font-size="12px" font-style="normal" font-weight="normal" text-decoration="normal" x="105" y="505" text-anchor="start" dominant-baseline="alphabetic" stroke-opacity="1" stroke-linejoin="bevel" stroke-miterlimit="10" stroke-width="3">–26</text><text fill="rgb(0,0,0)" stroke="none" font-family="geogebra-sans-serif, sans-serif" font-size="12px" font-style="normal" font-weight="normal" text-decoration="normal" x="105" y="505" text-anchor="start" dominant-baseline="alphabetic" fill-opacity="1">–26</text><text fill="none" stroke="rgb(255,255,255)" font-family="geogebra-sans-serif, sans-serif" font-size="12px" font-style="normal" font-weight="normal" text-decoration="normal" x="147" y="505" text-anchor="start" dominant-baseline="alphabetic" stroke-opacity="1" stroke-linejoin="bevel" stroke-miterlimit="10" stroke-width="3">–24</text><text fill="rgb(0,0,0)" stroke="none" font-family="geogebra-sans-serif, sans-serif" font-size="12px" font-style="normal" font-weight="normal" text-decoration="normal" x="147" y="505" text-anchor="start" dominant-baseline="alphabetic" fill-opacity="1">–24</text><text fill="none" stroke="rgb(255,255,255)" font-family="geogebra-sans-serif, sans-serif" font-size="12px" font-style="normal" font-weight="normal" text-decoration="normal" x="190" y="505" text-anchor="start" dominant-baseline="alphabetic" stroke-opacity="1" stroke-linejoin="bevel" stroke-miterlimit="10" stroke-width="3">–22</text><text fill="rgb(0,0,0)" stroke="none" font-family="geogebra-sans-serif, sans-serif" font-size="12px" font-style="normal" font-weight="normal" text-decoration="normal" x="190" y="505" text-anchor="start" dominant-baseline="alphabetic" fill-opacity="1">–22</text><text fill="none" stroke="rgb(255,255,255)" font-family="geogebra-sans-serif, sans-serif" font-size="12px" font-style="normal" font-weight="normal" text-decoration="normal" x="233" y="505" text-anchor="start" dominant-baseline="alphabetic" stroke-opacity="1" stroke-linejoin="bevel" stroke-miterlimit="10" stroke-width="3">–20</text><text fill="rgb(0,0,0)" stroke="none" font-family="geogebra-sans-serif, sans-serif" font-size="12px" font-style="normal" font-weight="normal" text-decoration="normal" x="233" y="505" text-anchor="start" dominant-baseline="alphabetic" fill-opacity="1">–20</text><text fill="none" stroke="rgb(255,255,255)" font-family="geogebra-sans-serif, sans-serif" font-size="12px" font-style="normal" font-weight="normal" text-decoration="normal" x="276" y="505" text-anchor="start" dominant-baseline="alphabetic" stroke-opacity="1" stroke-linejoin="bevel" stroke-miterlimit="10" stroke-width="3">–18</text><text fill="rgb(0,0,0)" stroke="none" font-family="geogebra-sans-serif, sans-serif" font-size="12px" font-style="normal" font-weight="normal" text-decoration="normal" x="276" y="505" text-anchor="start" dominant-baseline="alphabetic" fill-opacity="1">–18</text><text fill="none" stroke="rgb(255,255,255)" font-family="geogebra-sans-serif, sans-serif" font-size="12px" font-style="normal" font-weight="normal" text-decoration="normal" x="318" y="505" text-anchor="start" dominant-baseline="alphabetic" stroke-opacity="1" stroke-linejoin="bevel" stroke-miterlimit="10" stroke-width="3">–16</text><text fill="rgb(0,0,0)" stroke="none" font-family="geogebra-sans-serif, sans-serif" font-size="12px" font-style="normal" font-weight="normal" text-decoration="normal" x="318" y="505" text-anchor="start" dominant-baseline="alphabetic" fill-opacity="1">–16</text><text fill="none" stroke="rgb(255,255,255)" font-family="geogebra-sans-serif, sans-serif" font-size="12px" font-style="normal" font-weight="normal" text-decoration="normal" x="361" y="505" text-anchor="start" dominant-baseline="alphabetic" stroke-opacity="1" stroke-linejoin="bevel" stroke-miterlimit="10" stroke-width="3">–14</text><text fill="rgb(0,0,0)" stroke="none" font-family="geogebra-sans-serif, sans-serif" font-size="12px" font-style="normal" font-weight="normal" text-decoration="normal" x="361" y="505" text-anchor="start" dominant-baseline="alphabetic" fill-opacity="1">–14</text><text fill="none" stroke="rgb(255,255,255)" font-family="geogebra-sans-serif, sans-serif" font-size="12px" font-style="normal" font-weight="normal" text-decoration="normal" x="404" y="505" text-anchor="start" dominant-baseline="alphabetic" stroke-opacity="1" stroke-linejoin="bevel" stroke-miterlimit="10" stroke-width="3">–12</text><text fill="rgb(0,0,0)" stroke="none" font-family="geogebra-sans-serif, sans-serif" font-size="12px" font-style="normal" font-weight="normal" text-decoration="normal" x="404" y="505" text-anchor="start" dominant-baseline="alphabetic" fill-opacity="1">–12</text><text fill="none" stroke="rgb(255,255,255)" font-family="geogebra-sans-serif, sans-serif" font-size="12px" font-style="normal" font-weight="normal" text-decoration="normal" x="447" y="505" text-anchor="start" dominant-baseline="alphabetic" stroke-opacity="1" stroke-linejoin="bevel" stroke-miterlimit="10" stroke-width="3">–10</text><text fill="rgb(0,0,0)" stroke="none" font-family="geogebra-sans-serif, sans-serif" font-size="12px" font-style="normal" font-weight="normal" text-decoration="normal" x="447" y="505" text-anchor="start" dominant-baseline="alphabetic" fill-opacity="1">–10</text><text fill="none" stroke="rgb(255,255,255)" font-family="geogebra-sans-serif, sans-serif" font-size="12px" font-style="normal" font-weight="normal" text-decoration="normal" x="493" y="505" text-anchor="start" dominant-baseline="alphabetic" stroke-opacity="1" stroke-linejoin="bevel" stroke-miterlimit="10" stroke-width="3">–8</text><text fill="rgb(0,0,0)" stroke="none" font-family="geogebra-sans-serif, sans-serif" font-size="12px" font-style="normal" font-weight="normal" text-decoration="normal" x="493" y="505" text-anchor="start" dominant-baseline="alphabetic" fill-opacity="1">–8</text><text fill="none" stroke="rgb(255,255,255)" font-family="geogebra-sans-serif, sans-serif" font-size="12px" font-style="normal" font-weight="normal" text-decoration="normal" x="535" y="505" text-anchor="start" dominant-baseline="alphabetic" stroke-opacity="1" stroke-linejoin="bevel" stroke-miterlimit="10" stroke-width="3">–6</text><text fill="rgb(0,0,0)" stroke="none" font-family="geogebra-sans-serif, sans-serif" font-size="12px" font-style="normal" font-weight="normal" text-decoration="normal" x="535" y="505" text-anchor="start" dominant-baseline="alphabetic" fill-opacity="1">–6</text><text fill="none" stroke="rgb(255,255,255)" font-family="geogebra-sans-serif, sans-serif" font-size="12px" font-style="normal" font-weight="normal" text-decoration="normal" x="578" y="505" text-anchor="start" dominant-baseline="alphabetic" stroke-opacity="1" stroke-linejoin="bevel" stroke-miterlimit="10" stroke-width="3">–4</text><text fill="rgb(0,0,0)" stroke="none" font-family="geogebra-sans-serif, sans-serif" font-size="12px" font-style="normal" font-weight="normal" text-decoration="normal" x="578" y="505" text-anchor="start" dominant-baseline="alphabetic" fill-opacity="1">–4</text><text fill="none" stroke="rgb(255,255,255)" font-family="geogebra-sans-serif, sans-serif" font-size="12px" font-style="normal" font-weight="normal" text-decoration="normal" x="621" y="505" text-anchor="start" dominant-baseline="alphabetic" stroke-opacity="1" stroke-linejoin="bevel" stroke-miterlimit="10" stroke-width="3">–2</text><text fill="rgb(0,0,0)" stroke="none" font-family="geogebra-sans-serif, sans-serif" font-size="12px" font-style="normal" font-weight="normal" text-decoration="normal" x="621" y="505" text-anchor="start" dominant-baseline="alphabetic" fill-opacity="1">–2</text><text fill="none" stroke="rgb(255,255,255)" font-family="geogebra-sans-serif, sans-serif" font-size="12px" font-style="normal" font-weight="normal" text-decoration="normal" x="709" y="505" text-anchor="start" dominant-baseline="alphabetic" stroke-opacity="1" stroke-linejoin="bevel" stroke-miterlimit="10" stroke-width="3">2</text><text fill="rgb(0,0,0)" stroke="none" font-family="geogebra-sans-serif, sans-serif" font-size="12px" font-style="normal" font-weight="normal" text-decoration="normal" x="709" y="505" text-anchor="start" dominant-baseline="alphabetic" fill-opacity="1">2</text><text fill="none" stroke="rgb(255,255,255)" font-family="geogebra-sans-serif, sans-serif" font-size="12px" font-style="normal" font-weight="normal" text-decoration="normal" x="752" y="505" text-anchor="start" dominant-baseline="alphabetic" stroke-opacity="1" stroke-linejoin="bevel" stroke-miterlimit="10" stroke-width="3">4</text><text fill="rgb(0,0,0)" stroke="none" font-family="geogebra-sans-serif, sans-serif" font-size="12px" font-style="normal" font-weight="normal" text-decoration="normal" x="752" y="505" text-anchor="start" dominant-baseline="alphabetic" fill-opacity="1">4</text><text fill="none" stroke="rgb(255,255,255)" font-family="geogebra-sans-serif, sans-serif" font-size="12px" font-style="normal" font-weight="normal" text-decoration="normal" x="795" y="505" text-anchor="start" dominant-baseline="alphabetic" stroke-opacity="1" stroke-linejoin="bevel" stroke-miterlimit="10" stroke-width="3">6</text><text fill="rgb(0,0,0)" stroke="none" font-family="geogebra-sans-serif, sans-serif" font-size="12px" font-style="normal" font-weight="normal" text-decoration="normal" x="795" y="505" text-anchor="start" dominant-baseline="alphabetic" fill-opacity="1">6</text><text fill="none" stroke="rgb(255,255,255)" font-family="geogebra-sans-serif, sans-serif" font-size="12px" font-style="normal" font-weight="normal" text-decoration="normal" x="838" y="505" text-anchor="start" dominant-baseline="alphabetic" stroke-opacity="1" stroke-linejoin="bevel" stroke-miterlimit="10" stroke-width="3">8</text><text fill="rgb(0,0,0)" stroke="none" font-family="geogebra-sans-serif, sans-serif" font-size="12px" font-style="normal" font-weight="normal" text-decoration="normal" x="838" y="505" text-anchor="start" dominant-baseline="alphabetic" fill-opacity="1">8</text><text fill="none" stroke="rgb(255,255,255)" font-family="geogebra-sans-serif, sans-serif" font-size="12px" font-style="normal" font-weight="normal" text-decoration="normal" x="878" y="505" text-anchor="start" dominant-baseline="alphabetic" stroke-opacity="1" stroke-linejoin="bevel" stroke-miterlimit="10" stroke-width="3">10</text><text fill="rgb(0,0,0)" stroke="none" font-family="geogebra-sans-serif, sans-serif" font-size="12px" font-style="normal" font-weight="normal" text-decoration="normal" x="878" y="505" text-anchor="start" dominant-baseline="alphabetic" fill-opacity="1">10</text><text fill="none" stroke="rgb(255,255,255)" font-family="geogebra-sans-serif, sans-serif" font-size="12px" font-style="normal" font-weight="normal" text-decoration="normal" x="920" y="505" text-anchor="start" dominant-baseline="alphabetic" stroke-opacity="1" stroke-linejoin="bevel" stroke-miterlimit="10" stroke-width="3">12</text><text fill="rgb(0,0,0)" stroke="none" font-family="geogebra-sans-serif, sans-serif" font-size="12px" font-style="normal" font-weight="normal" text-decoration="normal" x="920" y="505" text-anchor="start" dominant-baseline="alphabetic" fill-opacity="1">12</text><text fill="none" stroke="rgb(255,255,255)" font-family="geogebra-sans-serif, sans-serif" font-size="12px" font-style="normal" font-weight="normal" text-decoration="normal" x="963" y="505" text-anchor="start" dominant-baseline="alphabetic" stroke-opacity="1" stroke-linejoin="bevel" stroke-miterlimit="10" stroke-width="3">14</text><text fill="rgb(0,0,0)" stroke="none" font-family="geogebra-sans-serif, sans-serif" font-size="12px" font-style="normal" font-weight="normal" text-decoration="normal" x="963" y="505" text-anchor="start" dominant-baseline="alphabetic" fill-opacity="1">14</text><text fill="none" stroke="rgb(255,255,255)" font-family="geogebra-sans-serif, sans-serif" font-size="12px" font-style="normal" font-weight="normal" text-decoration="normal" x="1006" y="505" text-anchor="start" dominant-baseline="alphabetic" stroke-opacity="1" stroke-linejoin="bevel" stroke-miterlimit="10" stroke-width="3">16</text><text fill="rgb(0,0,0)" stroke="none" font-family="geogebra-sans-serif, sans-serif" font-size="12px" font-style="normal" font-weight="normal" text-decoration="normal" x="1006" y="505" text-anchor="start" dominant-baseline="alphabetic" fill-opacity="1">16</text><text fill="none" stroke="rgb(255,255,255)" font-family="geogebra-sans-serif, sans-serif" font-size="12px" font-style="normal" font-weight="normal" text-decoration="normal" x="1049" y="505" text-anchor="start" dominant-baseline="alphabetic" stroke-opacity="1" stroke-linejoin="bevel" stroke-miterlimit="10" stroke-width="3">18</text><text fill="rgb(0,0,0)" stroke="none" font-family="geogebra-sans-serif, sans-serif" font-size="12px" font-style="normal" font-weight="normal" text-decoration="normal" x="1049" y="505" text-anchor="start" dominant-baseline="alphabetic" fill-opacity="1">18</text><text fill="none" stroke="rgb(255,255,255)" font-family="geogebra-sans-serif, sans-serif" font-size="12px" font-style="normal" font-weight="normal" text-decoration="normal" x="1091" y="505" text-anchor="start" dominant-baseline="alphabetic" stroke-opacity="1" stroke-linejoin="bevel" stroke-miterlimit="10" stroke-width="3">20</text><text fill="rgb(0,0,0)" stroke="none" font-family="geogebra-sans-serif, sans-serif" font-size="12px" font-style="normal" font-weight="normal" text-decoration="normal" x="1091" y="505" text-anchor="start" dominant-baseline="alphabetic" fill-opacity="1">20</text><text fill="none" stroke="rgb(255,255,255)" font-family="geogebra-sans-serif, sans-serif" font-size="12px" font-style="normal" font-weight="normal" text-decoration="normal" x="1134" y="505" text-anchor="start" dominant-baseline="alphabetic" stroke-opacity="1" stroke-linejoin="bevel" stroke-miterlimit="10" stroke-width="3">22</text><text fill="rgb(0,0,0)" stroke="none" font-family="geogebra-sans-serif, sans-serif" font-size="12px" font-style="normal" font-weight="normal" text-decoration="normal" x="1134" y="505" text-anchor="start" dominant-baseline="alphabetic" fill-opacity="1">22</text><text fill="none" stroke="rgb(255,255,255)" font-family="geogebra-sans-serif, sans-serif" font-size="12px" font-style="normal" font-weight="normal" text-decoration="normal" x="1177" y="505" text-anchor="start" dominant-baseline="alphabetic" stroke-opacity="1" stroke-linejoin="bevel" stroke-miterlimit="10" stroke-width="3">24</text><text fill="rgb(0,0,0)" stroke="none" font-family="geogebra-sans-serif, sans-serif" font-size="12px" font-style="normal" font-weight="normal" text-decoration="normal" x="1177" y="505" text-anchor="start" dominant-baseline="alphabetic" fill-opacity="1">24</text><text fill="none" stroke="rgb(255,255,255)" font-family="geogebra-sans-serif, sans-serif" font-size="12px" font-style="normal" font-weight="normal" text-decoration="normal" x="1220" y="505" text-anchor="start" dominant-baseline="alphabetic" stroke-opacity="1" stroke-linejoin="bevel" stroke-miterlimit="10" stroke-width="3">26</text><text fill="rgb(0,0,0)" stroke="none" font-family="geogebra-sans-serif, sans-serif" font-size="12px" font-style="normal" font-weight="normal" text-decoration="normal" x="1220" y="505" text-anchor="start" dominant-baseline="alphabetic" fill-opacity="1">26</text><text fill="none" stroke="rgb(255,255,255)" font-family="geogebra-sans-serif, sans-serif" font-size="12px" font-style="normal" font-weight="normal" text-decoration="normal" x="1263" y="505" text-anchor="start" dominant-baseline="alphabetic" stroke-opacity="1" stroke-linejoin="bevel" stroke-miterlimit="10" stroke-width="3">28</text><text fill="rgb(0,0,0)" stroke="none" font-family="geogebra-sans-serif, sans-serif" font-size="12px" font-style="normal" font-weight="normal" text-decoration="normal" x="1263" y="505" text-anchor="start" dominant-baseline="alphabetic" fill-opacity="1">28</text><text fill="none" stroke="rgb(255,255,255)" font-family="geogebra-sans-serif, sans-serif" font-size="12px" font-style="normal" font-weight="normal" text-decoration="normal" x="1305" y="505" text-anchor="start" dominant-baseline="alphabetic" stroke-opacity="1" stroke-linejoin="bevel" stroke-miterlimit="10" stroke-width="3">30</text><text fill="rgb(0,0,0)" stroke="none" font-family="geogebra-sans-serif, sans-serif" font-size="12px" font-style="normal" font-weight="normal" text-decoration="normal" x="1305" y="505" text-anchor="start" dominant-baseline="alphabetic" fill-opacity="1">30</text><text fill="none" stroke="rgb(255,255,255)" font-family="geogebra-sans-serif, sans-serif" font-size="12px" font-style="normal" font-weight="normal" text-decoration="normal" x="641" y="922" text-anchor="start" dominant-baseline="alphabetic" stroke-opacity="1" stroke-linejoin="bevel" stroke-miterlimit="10" stroke-width="3">–20</text><text fill="rgb(0,0,0)" stroke="none" font-family="geogebra-sans-serif, sans-serif" font-size="12px" font-style="normal" font-weight="normal" text-decoration="normal" x="641" y="922" text-anchor="start" dominant-baseline="alphabetic" fill-opacity="1">–20</text><text fill="none" stroke="rgb(255,255,255)" font-family="geogebra-sans-serif, sans-serif" font-size="12px" font-style="normal" font-weight="normal" text-decoration="normal" x="641" y="879" text-anchor="start" dominant-baseline="alphabetic" stroke-opacity="1" stroke-linejoin="bevel" stroke-miterlimit="10" stroke-width="3">–18</text><text fill="rgb(0,0,0)" stroke="none" font-family="geogebra-sans-serif, sans-serif" font-size="12px" font-style="normal" font-weight="normal" text-decoration="normal" x="641" y="879" text-anchor="start" dominant-baseline="alphabetic" fill-opacity="1">–18</text><text fill="none" stroke="rgb(255,255,255)" font-family="geogebra-sans-serif, sans-serif" font-size="12px" font-style="normal" font-weight="normal" text-decoration="normal" x="641" y="836" text-anchor="start" dominant-baseline="alphabetic" stroke-opacity="1" stroke-linejoin="bevel" stroke-miterlimit="10" stroke-width="3">–16</text><text fill="rgb(0,0,0)" stroke="none" font-family="geogebra-sans-serif, sans-serif" font-size="12px" font-style="normal" font-weight="normal" text-decoration="normal" x="641" y="836" text-anchor="start" dominant-baseline="alphabetic" fill-opacity="1">–16</text><text fill="none" stroke="rgb(255,255,255)" font-family="geogebra-sans-serif, sans-serif" font-size="12px" font-style="normal" font-weight="normal" text-decoration="normal" x="641" y="794" text-anchor="start" dominant-baseline="alphabetic" stroke-opacity="1" stroke-linejoin="bevel" stroke-miterlimit="10" stroke-width="3">–14</text><text fill="rgb(0,0,0)" stroke="none" font-family="geogebra-sans-serif, sans-serif" font-size="12px" font-style="normal" font-weight="normal" text-decoration="normal" x="641" y="794" text-anchor="start" dominant-baseline="alphabetic" fill-opacity="1">–14</text><text fill="none" stroke="rgb(255,255,255)" font-family="geogebra-sans-serif, sans-serif" font-size="12px" font-style="normal" font-weight="normal" text-decoration="normal" x="641" y="751" text-anchor="start" dominant-baseline="alphabetic" stroke-opacity="1" stroke-linejoin="bevel" stroke-miterlimit="10" stroke-width="3">–12</text><text fill="rgb(0,0,0)" stroke="none" font-family="geogebra-sans-serif, sans-serif" font-size="12px" font-style="normal" font-weight="normal" text-decoration="normal" x="641" y="751" text-anchor="start" dominant-baseline="alphabetic" fill-opacity="1">–12</text><text fill="none" stroke="rgb(255,255,255)" font-family="geogebra-sans-serif, sans-serif" font-size="12px" font-style="normal" font-weight="normal" text-decoration="normal" x="641" y="708" text-anchor="start" dominant-baseline="alphabetic" stroke-opacity="1" stroke-linejoin="bevel" stroke-miterlimit="10" stroke-width="3">–10</text><text fill="rgb(0,0,0)" stroke="none" font-family="geogebra-sans-serif, sans-serif" font-size="12px" font-style="normal" font-weight="normal" text-decoration="normal" x="641" y="708" text-anchor="start" dominant-baseline="alphabetic" fill-opacity="1">–10</text><text fill="none" stroke="rgb(255,255,255)" font-family="geogebra-sans-serif, sans-serif" font-size="12px" font-style="normal" font-weight="normal" text-decoration="normal" x="648" y="665" text-anchor="start" dominant-baseline="alphabetic" stroke-opacity="1" stroke-linejoin="bevel" stroke-miterlimit="10" stroke-width="3">–8</text><text fill="rgb(0,0,0)" stroke="none" font-family="geogebra-sans-serif, sans-serif" font-size="12px" font-style="normal" font-weight="normal" text-decoration="normal" x="648" y="665" text-anchor="start" dominant-baseline="alphabetic" fill-opacity="1">–8</text><text fill="none" stroke="rgb(255,255,255)" font-family="geogebra-sans-serif, sans-serif" font-size="12px" font-style="normal" font-weight="normal" text-decoration="normal" x="648" y="622" text-anchor="start" dominant-baseline="alphabetic" stroke-opacity="1" stroke-linejoin="bevel" stroke-miterlimit="10" stroke-width="3">–6</text><text fill="rgb(0,0,0)" stroke="none" font-family="geogebra-sans-serif, sans-serif" font-size="12px" font-style="normal" font-weight="normal" text-decoration="normal" x="648" y="622" text-anchor="start" dominant-baseline="alphabetic" fill-opacity="1">–6</text><text fill="none" stroke="rgb(255,255,255)" font-family="geogebra-sans-serif, sans-serif" font-size="12px" font-style="normal" font-weight="normal" text-decoration="normal" x="648" y="580" text-anchor="start" dominant-baseline="alphabetic" stroke-opacity="1" stroke-linejoin="bevel" stroke-miterlimit="10" stroke-width="3">–4</text><text fill="rgb(0,0,0)" stroke="none" font-family="geogebra-sans-serif, sans-serif" font-size="12px" font-style="normal" font-weight="normal" text-decoration="normal" x="648" y="580" text-anchor="start" dominant-baseline="alphabetic" fill-opacity="1">–4</text><text fill="none" stroke="rgb(255,255,255)" font-family="geogebra-sans-serif, sans-serif" font-size="12px" font-style="normal" font-weight="normal" text-decoration="normal" x="648" y="537" text-anchor="start" dominant-baseline="alphabetic" stroke-opacity="1" stroke-linejoin="bevel" stroke-miterlimit="10" stroke-width="3">–2</text><text fill="rgb(0,0,0)" stroke="none" font-family="geogebra-sans-serif, sans-serif" font-size="12px" font-style="normal" font-weight="normal" text-decoration="normal" x="648" y="537" text-anchor="start" dominant-baseline="alphabetic" fill-opacity="1">–2</text><text fill="none" stroke="rgb(255,255,255)" font-family="geogebra-sans-serif, sans-serif" font-size="12px" font-style="normal" font-weight="normal" text-decoration="normal" x="655" y="451" text-anchor="start" dominant-baseline="alphabetic" stroke-opacity="1" stroke-linejoin="bevel" stroke-miterlimit="10" stroke-width="3">2</text><text fill="rgb(0,0,0)" stroke="none" font-family="geogebra-sans-serif, sans-serif" font-size="12px" font-style="normal" font-weight="normal" text-decoration="normal" x="655" y="451" text-anchor="start" dominant-baseline="alphabetic" fill-opacity="1">2</text><text fill="none" stroke="rgb(255,255,255)" font-family="geogebra-sans-serif, sans-serif" font-size="12px" font-style="normal" font-weight="normal" text-decoration="normal" x="655" y="409" text-anchor="start" dominant-baseline="alphabetic" stroke-opacity="1" stroke-linejoin="bevel" stroke-miterlimit="10" stroke-width="3">4</text><text fill="rgb(0,0,0)" stroke="none" font-family="geogebra-sans-serif, sans-serif" font-size="12px" font-style="normal" font-weight="normal" text-decoration="normal" x="655" y="409" text-anchor="start" dominant-baseline="alphabetic" fill-opacity="1">4</text><text fill="none" stroke="rgb(255,255,255)" font-family="geogebra-sans-serif, sans-serif" font-size="12px" font-style="normal" font-weight="normal" text-decoration="normal" x="655" y="366" text-anchor="start" dominant-baseline="alphabetic" stroke-opacity="1" stroke-linejoin="bevel" stroke-miterlimit="10" stroke-width="3">6</text><text fill="rgb(0,0,0)" stroke="none" font-family="geogebra-sans-serif, sans-serif" font-size="12px" font-style="normal" font-weight="normal" text-decoration="normal" x="655" y="366" text-anchor="start" dominant-baseline="alphabetic" fill-opacity="1">6</text><text fill="none" stroke="rgb(255,255,255)" font-family="geogebra-sans-serif, sans-serif" font-size="12px" font-style="normal" font-weight="normal" text-decoration="normal" x="655" y="323" text-anchor="start" dominant-baseline="alphabetic" stroke-opacity="1" stroke-linejoin="bevel" stroke-miterlimit="10" stroke-width="3">8</text><text fill="rgb(0,0,0)" stroke="none" font-family="geogebra-sans-serif, sans-serif" font-size="12px" font-style="normal" font-weight="normal" text-decoration="normal" x="655" y="323" text-anchor="start" dominant-baseline="alphabetic" fill-opacity="1">8</text><text fill="none" stroke="rgb(255,255,255)" font-family="geogebra-sans-serif, sans-serif" font-size="12px" font-style="normal" font-weight="normal" text-decoration="normal" x="648" y="280" text-anchor="start" dominant-baseline="alphabetic" stroke-opacity="1" stroke-linejoin="bevel" stroke-miterlimit="10" stroke-width="3">10</text><text fill="rgb(0,0,0)" stroke="none" font-family="geogebra-sans-serif, sans-serif" font-size="12px" font-style="normal" font-weight="normal" text-decoration="normal" x="648" y="280" text-anchor="start" dominant-baseline="alphabetic" fill-opacity="1">10</text><text fill="none" stroke="rgb(255,255,255)" font-family="geogebra-sans-serif, sans-serif" font-size="12px" font-style="normal" font-weight="normal" text-decoration="normal" x="648" y="237" text-anchor="start" dominant-baseline="alphabetic" stroke-opacity="1" stroke-linejoin="bevel" stroke-miterlimit="10" stroke-width="3">12</text><text fill="rgb(0,0,0)" stroke="none" font-family="geogebra-sans-serif, sans-serif" font-size="12px" font-style="normal" font-weight="normal" text-decoration="normal" x="648" y="237" text-anchor="start" dominant-baseline="alphabetic" fill-opacity="1">12</text><text fill="none" stroke="rgb(255,255,255)" font-family="geogebra-sans-serif, sans-serif" font-size="12px" font-style="normal" font-weight="normal" text-decoration="normal" x="648" y="195" text-anchor="start" dominant-baseline="alphabetic" stroke-opacity="1" stroke-linejoin="bevel" stroke-miterlimit="10" stroke-width="3">14</text><text fill="rgb(0,0,0)" stroke="none" font-family="geogebra-sans-serif, sans-serif" font-size="12px" font-style="normal" font-weight="normal" text-decoration="normal" x="648" y="195" text-anchor="start" dominant-baseline="alphabetic" fill-opacity="1">14</text><text fill="none" stroke="rgb(255,255,255)" font-family="geogebra-sans-serif, sans-serif" font-size="12px" font-style="normal" font-weight="normal" text-decoration="normal" x="648" y="152" text-anchor="start" dominant-baseline="alphabetic" stroke-opacity="1" stroke-linejoin="bevel" stroke-miterlimit="10" stroke-width="3">16</text><text fill="rgb(0,0,0)" stroke="none" font-family="geogebra-sans-serif, sans-serif" font-size="12px" font-style="normal" font-weight="normal" text-decoration="normal" x="648" y="152" text-anchor="start" dominant-baseline="alphabetic" fill-opacity="1">16</text><text fill="none" stroke="rgb(255,255,255)" font-family="geogebra-sans-serif, sans-serif" font-size="12px" font-style="normal" font-weight="normal" text-decoration="normal" x="648" y="109" text-anchor="start" dominant-baseline="alphabetic" stroke-opacity="1" stroke-linejoin="bevel" stroke-miterlimit="10" stroke-width="3">18</text><text fill="rgb(0,0,0)" stroke="none" font-family="geogebra-sans-serif, sans-serif" font-size="12px" font-style="normal" font-weight="normal" text-decoration="normal" x="648" y="109" text-anchor="start" dominant-baseline="alphabetic" fill-opacity="1">18</text><text fill="none" stroke="rgb(255,255,255)" font-family="geogebra-sans-serif, sans-serif" font-size="12px" font-style="normal" font-weight="normal" text-decoration="normal" x="648" y="66" text-anchor="start" dominant-baseline="alphabetic" stroke-opacity="1" stroke-linejoin="bevel" stroke-miterlimit="10" stroke-width="3">20</text><text fill="rgb(0,0,0)" stroke="none" font-family="geogebra-sans-serif, sans-serif" font-size="12px" font-style="normal" font-weight="normal" text-decoration="normal" x="648" y="66" text-anchor="start" dominant-baseline="alphabetic" fill-opacity="1">20</text><text fill="none" stroke="rgb(255,255,255)" font-family="geogebra-sans-serif, sans-serif" font-size="12px" font-style="normal" font-weight="normal" text-decoration="normal" x="648" y="24" text-anchor="start" dominant-baseline="alphabetic" stroke-opacity="1" stroke-linejoin="bevel" stroke-miterlimit="10" stroke-width="3">22</text><text fill="rgb(0,0,0)" stroke="none" font-family="geogebra-sans-serif, sans-serif" font-size="12px" font-style="normal" font-weight="normal" text-decoration="normal" x="648" y="24" text-anchor="start" dominant-baseline="alphabetic" fill-opacity="1">22</text><text fill="none" stroke="rgb(255,255,255)" font-family="geogebra-sans-serif, sans-serif" font-size="12px" font-style="normal" font-weight="normal" text-decoration="normal" x="655" y="505" text-anchor="start" dominant-baseline="alphabetic" stroke-opacity="1" stroke-linejoin="bevel" stroke-miterlimit="10" stroke-width="3">0</text><text fill="rgb(0,0,0)" stroke="none" font-family="geogebra-sans-serif, sans-serif" font-size="12px" font-style="normal" font-weight="normal" text-decoration="normal" x="655" y="505" text-anchor="start" dominant-baseline="alphabetic" fill-opacity="1">0</text></g></g></svg>